<svg version="1.1" viewBox="0.0 0.0 736.6745406824147 762.6797900262467" fill="none" stroke="none" stroke-linecap="square" stroke-miterlimit="10" xmlns:xlink="http://www.w3.org/1999/xlink" xmlns="http://www.w3.org/2000/svg"><clipPath id="p.0"><path d="m0 0l736.67456 0l0 762.6798l-736.67456 0l0 -762.6798z" clip-rule="nonzero"/></clipPath><g clip-path="url(#p.0)"><path fill="#000000" fill-opacity="0.0" d="m0 0l736.67456 0l0 762.6798l-736.67456 0z" fill-rule="evenodd"/><path fill="#000000" fill-opacity="0.0" d="m364.90823 464.79703c-21.458893 13.238403 -31.280396 62.561676 -13.451447 81.99216c17.828949 19.43042 98.824585 15.461914 120.4252 34.590515c21.600616 19.128601 6.268585 63.09143 9.178467 80.18109c2.9098816 17.089722 2.4838257 15.594482 8.280853 22.356995c5.7970276 6.762451 13.803131 15.319336 26.501282 18.217834c12.698181 2.8984985 36.71393 5.2458496 49.687683 -0.8267822c12.973755 -6.072632 25.532349 -14.7677 28.154846 -35.608948c2.6224976 -20.841187 -11.454041 -60.591858 -12.419922 -89.43829c-0.96588135 -28.846436 10.765503 -62.93701 6.624634 -83.64041c-4.140808 -20.70343 -13.523132 -36.36966 -31.469788 -40.580048c-17.946655 -4.2104187 -44.29132 13.191589 -76.20999 15.317566c-31.91861 2.1259766 -93.84296 -15.800079 -115.30182 -2.561676z" fill-rule="evenodd"/><path stroke="#0000ff" stroke-width="4.0" stroke-linejoin="round" stroke-linecap="butt" d="m364.90823 464.79703c-21.458893 13.238403 -31.280396 62.561676 -13.451447 81.99216c17.828949 19.43042 98.824585 15.461914 120.4252 34.590515c21.600616 19.128601 6.268585 63.09143 9.178467 80.18109c2.9098816 17.089722 2.4838257 15.594482 8.280853 22.356995c5.7970276 6.762451 13.803131 15.319336 26.501282 18.217834c12.698181 2.8984985 36.71393 5.2458496 49.687683 -0.8267822c12.973755 -6.072632 25.532349 -14.7677 28.154846 -35.608948c2.6224976 -20.841187 -11.454041 -60.591858 -12.419922 -89.43829c-0.96588135 -28.846436 10.765503 -62.93701 6.624634 -83.64041c-4.140808 -20.70343 -13.523132 -36.36966 -31.469788 -40.580048c-17.946655 -4.2104187 -44.29132 13.191589 -76.20999 15.317566c-31.91861 2.1259766 -93.84296 -15.800079 -115.30182 -2.561676z" fill-rule="evenodd"/><path fill="#000000" fill-opacity="0.0" d="m39.086163 441.73578c39.785557 -13.814728 182.76266 -13.953308 234.56685 6.6302795c51.80417 20.583557 47.10971 89.79477 76.25824 116.871124c29.148499 27.076416 81.50296 20.859558 98.63284 45.58734c17.129883 24.727783 19.756744 85.23486 4.146454 102.7793c-15.610321 17.544434 -59.403778 13.400818 -97.80829 2.4871826c-38.40454 -10.913574 -79.295135 -37.162598 -132.6189 -67.96869c-53.32376 -30.806091 -156.79413 -82.47003 -187.32367 -116.86774c-30.529533 -34.397766 -35.63909 -75.70404 4.1464615 -89.5188z" fill-rule="evenodd"/><path stroke="#ff0000" stroke-width="4.0" stroke-linejoin="round" stroke-linecap="butt" d="m39.086163 441.73578c39.785557 -13.814728 182.76266 -13.953308 234.56685 6.6302795c51.80417 20.583557 47.10971 89.79477 76.25824 116.871124c29.148499 27.076416 81.50296 20.859558 98.63284 45.58734c17.129883 24.727783 19.756744 85.23486 4.146454 102.7793c-15.610321 17.544434 -59.403778 13.400818 -97.80829 2.4871826c-38.40454 -10.913574 -79.295135 -37.162598 -132.6189 -67.96869c-53.32376 -30.806091 -156.79413 -82.47003 -187.32367 -116.86774c-30.529533 -34.397766 -35.63909 -75.70404 4.1464615 -89.5188z" fill-rule="evenodd"/><path fill="#000000" fill-opacity="0.0" d="m416.15164 454.54758c-35.472015 -3.7261658 -138.58707 -2.2257385 -174.41995 3.2913208c-35.8329 5.5170593 -35.470703 15.457153 -40.57744 29.811035c-5.106735 14.353882 -1.5187988 43.338593 9.937012 56.312347c11.455826 12.973755 24.43045 18.217834 58.797897 21.530151c34.367462 3.312378 116.21393 4.416443 147.40683 -1.6561279c31.192902 -6.072632 33.539368 -20.839478 39.75064 -34.77954c6.2113037 -13.940063 4.3329163 -36.442688 -2.4829102 -48.8609c-6.815857 -12.418182 -2.940094 -21.92212 -38.41208 -25.648285z" fill-rule="evenodd"/><path stroke="#ff9900" stroke-width="4.0" stroke-linejoin="round" stroke-linecap="butt" d="m416.15164 454.54758c-35.472015 -3.7261658 -138.58707 -2.2257385 -174.41995 3.2913208c-35.8329 5.5170593 -35.470703 15.457153 -40.57744 29.811035c-5.106735 14.353882 -1.5187988 43.338593 9.937012 56.312347c11.455826 12.973755 24.43045 18.217834 58.797897 21.530151c34.367462 3.312378 116.21393 4.416443 147.40683 -1.6561279c31.192902 -6.072632 33.539368 -20.839478 39.75064 -34.77954c6.2113037 -13.940063 4.3329163 -36.442688 -2.4829102 -48.8609c-6.815857 -12.418182 -2.940094 -21.92212 -38.41208 -25.648285z" fill-rule="evenodd"/><path fill="#000000" fill-opacity="0.0" d="m348.89334 459.67175c-43.238434 38.54068 -33.62906 196.86786 7.6876526 237.0105c41.31671 40.14258 196.97418 42.385803 240.21259 3.8451538c43.238403 -38.54071 60.534546 -194.94666 19.217834 -235.08926c-41.31671 -40.14261 -223.87967 -44.307068 -267.11807 -5.766388z" fill-rule="evenodd"/><path stroke="#38761d" stroke-width="4.0" stroke-linejoin="round" stroke-linecap="butt" d="m348.89334 459.67175c-43.238434 38.54068 -33.62906 196.86786 7.6876526 237.0105c41.31671 40.14258 196.97418 42.385803 240.21259 3.8451538c43.238403 -38.54071 60.534546 -194.94666 19.217834 -235.08926c-41.31671 -40.14261 -223.87967 -44.307068 -267.11807 -5.766388z" fill-rule="evenodd"/><path fill="#000000" fill-opacity="0.0" d="m77.895325 508.9458l0 0c0 -21.439087 17.379814 -38.81888 38.8189 -38.81888l0 0c10.29541 0 20.169151 4.0898438 27.449104 11.3697815c7.279953 7.2799683 11.369797 17.153687 11.369797 27.449097l0 0c0 21.439087 -17.379822 38.81891 -38.8189 38.81891l0 0c-21.439087 0 -38.8189 -17.379822 -38.8189 -38.81891z" fill-rule="evenodd"/><path stroke="#000000" stroke-width="4.0" stroke-linejoin="round" stroke-linecap="butt" d="m77.895325 508.9458l0 0c0 -21.439087 17.379814 -38.81888 38.8189 -38.81888l0 0c10.29541 0 20.169151 4.0898438 27.449104 11.3697815c7.279953 7.2799683 11.369797 17.153687 11.369797 27.449097l0 0c0 21.439087 -17.379822 38.81891 -38.8189 38.81891l0 0c-21.439087 0 -38.8189 -17.379822 -38.8189 -38.81891z" fill-rule="evenodd"/><path fill="#000000" d="m119.73766 520.66583l-2.8125 0l0 -17.921906q-1.015625 0.96875 -2.671875 1.9375q-1.640625 0.96875 -2.953125 1.453125l0 -2.71875q2.359375 -1.109375 4.125 -2.6875q1.765625 -1.578125 2.5 -3.0625l1.8125 0l0 23.00003z" fill-rule="nonzero"/><path fill="#000000" fill-opacity="0.0" d="m217.14172 508.9458l0 0c0 -21.439087 17.379822 -38.81888 38.818893 -38.81888l0 0c10.295425 0 20.169144 4.0898438 27.449112 11.3697815c7.2799683 7.2799683 11.3697815 17.153687 11.3697815 27.449097l0 0c0 21.439087 -17.379791 38.81891 -38.818893 38.81891l0 0c-21.439072 0 -38.818893 -17.379822 -38.818893 -38.81891z" fill-rule="evenodd"/><path stroke="#000000" stroke-width="4.0" stroke-linejoin="round" stroke-linecap="butt" d="m217.14172 508.9458l0 0c0 -21.439087 17.379822 -38.81888 38.818893 -38.81888l0 0c10.295425 0 20.169144 4.0898438 27.449112 11.3697815c7.2799683 7.2799683 11.3697815 17.153687 11.3697815 27.449097l0 0c0 21.439087 -17.379791 38.81891 -38.818893 38.81891l0 0c-21.439072 0 -38.818893 -17.379822 -38.818893 -38.81891z" fill-rule="evenodd"/><path fill="#000000" d="m248.40593 514.61896l2.8125 -0.375q0.484375 2.390625 1.640625 3.453125q1.171875 1.046875 2.84375 1.046875q1.9843903 0 3.3437653 -1.375q1.375 -1.375 1.375 -3.40625q0 -1.9375 -1.265625 -3.1875305q-1.265625 -1.265625 -3.2187653 -1.265625q-0.796875 0 -1.984375 0.3125l0.3125 -2.46875q0.28125 0.03125 0.453125 0.03125q1.7968903 0 3.2343903 -0.9375q1.4375 -0.9375 1.4375 -2.890625q0 -1.546875 -1.046875 -2.5625q-1.046875 -1.015625 -2.7031403 -1.015625q-1.640625 0 -2.734375 1.03125q-1.09375 1.03125 -1.40625 3.09375l-2.8125 -0.5q0.515625 -2.828125 2.34375 -4.375q1.828125 -1.5625 4.546875 -1.5625q1.8750153 0 3.4531403 0.8125q1.578125 0.796875 2.40625 2.1875q0.84375 1.390625 0.84375 2.953125q0 1.484375 -0.796875 2.703125q-0.796875 1.21875 -2.359375 1.9375q2.03125 0.46875 3.15625 1.953125q1.125 1.46875 1.125 3.6875305q0 3.0 -2.1875 5.09375q-2.1875 2.078125 -5.5312653 2.078125q-3.015625 0 -5.015625 -1.796875q-1.984375 -1.796875 -2.265625 -4.65625z" fill-rule="nonzero"/><path fill="#000000" fill-opacity="0.0" d="m356.38812 508.9458l0 0c0 -21.439087 17.379822 -38.81888 38.81891 -38.81888l0 0c10.29541 0 20.169128 4.0898438 27.449097 11.3697815c7.2799683 7.2799683 11.3697815 17.153687 11.3697815 27.449097l0 0c0 21.439087 -17.379791 38.81891 -38.81888 38.81891l0 0c-21.439087 0 -38.81891 -17.379822 -38.81891 -38.81891z" fill-rule="evenodd"/><path stroke="#000000" stroke-width="4.0" stroke-linejoin="round" stroke-linecap="butt" d="m356.38812 508.9458l0 0c0 -21.439087 17.379822 -38.81888 38.81891 -38.81888l0 0c10.29541 0 20.169128 4.0898438 27.449097 11.3697815c7.2799683 7.2799683 11.3697815 17.153687 11.3697815 27.449097l0 0c0 21.439087 -17.379791 38.81891 -38.81888 38.81891l0 0c-21.439087 0 -38.81891 -17.379822 -38.81891 -38.81891z" fill-rule="evenodd"/><path fill="#000000" d="m402.41797 517.9627l0 2.703125l-15.140625 0q-0.03125 -1.015625 0.328125 -1.953125q0.578125 -1.546875 1.84375 -3.046875q1.28125 -1.5 3.6875 -3.46875q3.734375 -3.0625305 5.046875 -4.8437805q1.3125 -1.796875 1.3125 -3.390625q0 -1.671875 -1.203125 -2.8125q-1.1875 -1.15625 -3.109375 -1.15625q-2.03125 0 -3.25 1.21875q-1.21875 1.21875 -1.234375 3.375l-2.890625 -0.296875q0.296875 -3.234375 2.234375 -4.921875q1.9375 -1.703125 5.203125 -1.703125q3.296875 0 5.21875 1.828125q1.921875 1.828125 1.921875 4.53125q0 1.375 -0.5625 2.703125q-0.5625 1.328125 -1.875 2.796875q-1.296875 1.46875 -4.328125 4.0312805q-2.53125 2.125 -3.25 2.890625q-0.71875 0.75 -1.1875 1.515625l11.234375 0z" fill-rule="nonzero"/><path fill="#000000" fill-opacity="0.0" d="m495.63452 508.9458l0 0c0 -21.439087 17.379822 -38.81888 38.81891 -38.81888l0 0c10.29541 0 20.169128 4.0898438 27.449097 11.3697815c7.2799683 7.2799683 11.369812 17.153687 11.369812 27.449097l0 0c0 21.439087 -17.379822 38.81891 -38.81891 38.81891l0 0c-21.439087 0 -38.81891 -17.379822 -38.81891 -38.81891z" fill-rule="evenodd"/><path stroke="#000000" stroke-width="4.0" stroke-linejoin="round" stroke-linecap="butt" d="m495.63452 508.9458l0 0c0 -21.439087 17.379822 -38.81888 38.81891 -38.81888l0 0c10.29541 0 20.169128 4.0898438 27.449097 11.3697815c7.2799683 7.2799683 11.369812 17.153687 11.369812 27.449097l0 0c0 21.439087 -17.379822 38.81891 -38.81891 38.81891l0 0c-21.439087 0 -38.81891 -17.379822 -38.81891 -38.81891z" fill-rule="evenodd"/><path fill="#000000" d="m526.8831 514.66583l2.953125 -0.25q0.328125 2.15625 1.515625 3.25q1.203125 1.078125 2.890625 1.078125q2.03125 0 3.4375 -1.53125q1.40625 -1.53125 1.40625 -4.0625q0 -2.4062805 -1.359375 -3.7969055q-1.34375 -1.390625 -3.53125 -1.390625q-1.359375 0 -2.453125 0.625q-1.09375 0.609375 -1.71875 1.59375l-2.640625 -0.34375l2.21875 -11.765625l11.390625 0l0 2.6875l-9.140625 0l-1.234375 6.15625q2.0625 -1.4375 4.328125 -1.4375q3.0 0 5.0625 2.078125q2.0625 2.078125 2.0625 5.3437805q0 3.109375 -1.8125 5.375q-2.203125 2.78125 -6.015625 2.78125q-3.125 0 -5.109375 -1.75q-1.96875 -1.75 -2.25 -4.640625z" fill-rule="nonzero"/><path fill="#000000" fill-opacity="0.0" d="m495.63452 653.12915l0 0c0 -21.439087 17.379822 -38.81891 38.81891 -38.81891l0 0c10.29541 0 20.169128 4.0898438 27.449097 11.369812c7.2799683 7.2799683 11.369812 17.153687 11.369812 27.449097l0 0c0 21.439087 -17.379822 38.81891 -38.81891 38.81891l0 0c-21.439087 0 -38.81891 -17.379822 -38.81891 -38.81891z" fill-rule="evenodd"/><path stroke="#000000" stroke-width="4.0" stroke-linejoin="round" stroke-linecap="butt" d="m495.63452 653.12915l0 0c0 -21.439087 17.379822 -38.81891 38.81891 -38.81891l0 0c10.29541 0 20.169128 4.0898438 27.449097 11.369812c7.2799683 7.2799683 11.369812 17.153687 11.369812 27.449097l0 0c0 21.439087 -17.379822 38.81891 -38.81891 38.81891l0 0c-21.439087 0 -38.81891 -17.379822 -38.81891 -38.81891z" fill-rule="evenodd"/><path fill="#000000" d="m541.47687 647.5523l-2.796875 0.21875q-0.375 -1.65625 -1.0625 -2.40625q-1.140625 -1.203125 -2.8125 -1.203125q-1.34375 0 -2.359375 0.75q-1.328125 0.96875 -2.09375 2.828125q-0.765625 1.859375 -0.796875 5.296875q1.015625 -1.546875 2.484375 -2.296875q1.46875 -0.75 3.078125 -0.75q2.8125 0 4.78125 2.078125q1.984375 2.0625 1.984375 5.34375q0 2.15625 -0.9375 4.015625q-0.921875 1.84375 -2.546875 2.828125q-1.625 0.984375 -3.6875 0.984375q-3.515625 0 -5.734375 -2.578125q-2.21875 -2.59375 -2.21875 -8.53125q0 -6.640625 2.453125 -9.65625q2.140625 -2.625 5.765625 -2.625q2.703125 0 4.421875 1.515625q1.734375 1.515625 2.078125 4.1875zm-11.484375 9.875q0 1.453125 0.609375 2.78125q0.625 1.328125 1.734375 2.03125q1.109375 0.6875 2.328125 0.6875q1.78125 0 3.0625 -1.4375q1.28125 -1.4375 1.28125 -3.90625q0 -2.375 -1.265625 -3.734375q-1.265625 -1.375 -3.1875 -1.375q-1.90625 0 -3.234375 1.375q-1.328125 1.359375 -1.328125 3.578125z" fill-rule="nonzero"/><path fill="#000000" fill-opacity="0.0" d="m356.38812 653.12915l0 0c0 -21.439087 17.379822 -38.81891 38.81891 -38.81891l0 0c10.29541 0 20.169128 4.0898438 27.449097 11.369812c7.2799683 7.2799683 11.3697815 17.153687 11.3697815 27.449097l0 0c0 21.439087 -17.379791 38.81891 -38.81888 38.81891l0 0c-21.439087 0 -38.81891 -17.379822 -38.81891 -38.81891z" fill-rule="evenodd"/><path stroke="#000000" stroke-width="4.0" stroke-linejoin="round" stroke-linecap="butt" d="m356.38812 653.12915l0 0c0 -21.439087 17.379822 -38.81891 38.81891 -38.81891l0 0c10.29541 0 20.169128 4.0898438 27.449097 11.369812c7.2799683 7.2799683 11.3697815 17.153687 11.3697815 27.449097l0 0c0 21.439087 -17.379791 38.81891 -38.81888 38.81891l0 0c-21.439087 0 -38.81891 -17.379822 -38.81891 -38.81891z" fill-rule="evenodd"/><path fill="#000000" d="m396.65234 664.8492l0 -5.484375l-9.9375 0l0 -2.578125l10.453125 -14.84375l2.296875 0l0 14.84375l3.09375 0l0 2.578125l-3.09375 0l0 5.484375l-2.8125 0zm0 -8.0625l0 -10.328125l-7.171875 10.328125l7.171875 0z" fill-rule="nonzero"/><path fill="#000000" fill-opacity="0.0" d="m115.02887 398.70865l113.543304 0l0 42.236237l-113.543304 0z" fill-rule="evenodd"/><path fill="#000000" d="m124.81012 422.0974l1.640625 -0.21875q0.28125 1.40625 0.953125 2.015625q0.6875 0.609375 1.65625 0.609375q1.15625 0 1.953125 -0.796875q0.796875 -0.796875 0.796875 -1.984375q0 -1.125 -0.734375 -1.859375q-0.734375 -0.734375 -1.875 -0.734375q-0.46875 0 -1.15625 0.171875l0.1875 -1.4375q0.15625 0.015625 0.265625 0.015625q1.046875 0 1.875 -0.546875q0.84375 -0.546875 0.84375 -1.671875q0 -0.90625 -0.609375 -1.5q-0.609375 -0.59375 -1.578125 -0.59375q-0.953125 0 -1.59375 0.609375q-0.640625 0.59375 -0.8125 1.796875l-1.640625 -0.296875q0.296875 -1.640625 1.359375 -2.546875q1.0625 -0.90625 2.65625 -0.90625q1.09375 0 2.0 0.46875q0.921875 0.46875 1.40625 1.28125q0.5 0.8125 0.5 1.71875q0 0.859375 -0.46875 1.578125q-0.46875 0.703125 -1.375 1.125q1.1875 0.28125 1.84375 1.140625q0.65625 0.859375 0.65625 2.15625q0 1.734375 -1.28125 2.953125q-1.265625 1.21875 -3.21875 1.21875q-1.765625 0 -2.921875 -1.046875q-1.15625 -1.046875 -1.328125 -2.71875zm10.375717 -3.0625q0 -2.359375 0.484375 -3.796875q0.484375 -1.453125 1.4375 -2.234375q0.96875 -0.78125 2.421875 -0.78125q1.078125 0 1.890625 0.4375q0.8125 0.421875 1.328125 1.25q0.53125 0.8125 0.828125 1.984375q0.3125 1.15625 0.3125 3.140625q0 2.359375 -0.484375 3.8125q-0.484375 1.4375 -1.453125 2.234375q-0.953125 0.78125 -2.421875 0.78125q-1.921875 0 -3.03125 -1.390625q-1.3125 -1.671875 -1.3125 -5.4375zm1.671875 0q0 3.296875 0.765625 4.390625q0.78125 1.078125 1.90625 1.078125q1.140625 0 1.90625 -1.09375q0.765625 -1.09375 0.765625 -4.375q0 -3.296875 -0.765625 -4.375q-0.765625 -1.078125 -1.921875 -1.078125q-1.125 0 -1.796875 0.953125q-0.859375 1.21875 -0.859375 4.5zm8.703842 0q0 -2.359375 0.484375 -3.796875q0.484375 -1.453125 1.4375 -2.234375q0.96875 -0.78125 2.421875 -0.78125q1.078125 0 1.890625 0.4375q0.8125 0.421875 1.328125 1.25q0.53125 0.8125 0.828125 1.984375q0.3125 1.15625 0.3125 3.140625q0 2.359375 -0.484375 3.8125q-0.484375 1.4375 -1.453125 2.234375q-0.953125 0.78125 -2.421875 0.78125q-1.921875 0 -3.03125 -1.390625q-1.3125 -1.671875 -1.3125 -5.4375zm1.671875 0q0 3.296875 0.765625 4.390625q0.78125 1.078125 1.90625 1.078125q1.140625 0 1.90625 -1.09375q0.765625 -1.09375 0.765625 -4.375q0 -3.296875 -0.765625 -4.375q-0.765625 -1.078125 -1.921875 -1.078125q-1.125 0 -1.796875 0.953125q-0.859375 1.21875 -0.859375 4.5zm8.703842 0q0 -2.359375 0.484375 -3.796875q0.484375 -1.453125 1.4375 -2.234375q0.96875 -0.78125 2.421875 -0.78125q1.078125 0 1.890625 0.4375q0.8125 0.421875 1.328125 1.25q0.53125 0.8125 0.828125 1.984375q0.3125 1.15625 0.3125 3.140625q0 2.359375 -0.484375 3.8125q-0.484375 1.4375 -1.453125 2.234375q-0.953125 0.78125 -2.421875 0.78125q-1.921875 0 -3.03125 -1.390625q-1.3125 -1.671875 -1.3125 -5.4375zm1.671875 0q0 3.296875 0.765625 4.390625q0.78125 1.078125 1.90625 1.078125q1.140625 0 1.90625 -1.09375q0.765625 -1.09375 0.765625 -4.375q0 -3.296875 -0.765625 -4.375q-0.765625 -1.078125 -1.921875 -1.078125q-1.125 0 -1.796875 0.953125q-0.859375 1.21875 -0.859375 4.5zm8.703842 0q0 -2.359375 0.484375 -3.796875q0.484375 -1.453125 1.4375 -2.234375q0.96875 -0.78125 2.421875 -0.78125q1.078125 0 1.890625 0.4375q0.8125 0.421875 1.328125 1.25q0.53125 0.8125 0.828125 1.984375q0.3125 1.15625 0.3125 3.140625q0 2.359375 -0.484375 3.8125q-0.484375 1.4375 -1.453125 2.234375q-0.953125 0.78125 -2.421875 0.78125q-1.921875 0 -3.03125 -1.390625q-1.3125 -1.671875 -1.3125 -5.4375zm1.671875 0q0 3.296875 0.765625 4.390625q0.78125 1.078125 1.90625 1.078125q1.140625 0 1.90625 -1.09375q0.765625 -1.09375 0.765625 -4.375q0 -3.296875 -0.765625 -4.375q-0.765625 -1.078125 -1.921875 -1.078125q-1.125 0 -1.796875 0.953125q-0.859375 1.21875 -0.859375 4.5z" fill-rule="nonzero"/><path fill="#000000" fill-opacity="0.0" d="m634.8819 538.8989l54.80316 0l0 42.236267l-54.80316 0z" fill-rule="evenodd"/><path fill="#000000" d="m650.835 565.819l-1.640625 0l0 -10.453125q-0.59375 0.5625 -1.5625 1.140625q-0.953125 0.5625 -1.71875 0.84375l0 -1.59375q1.375 -0.640625 2.40625 -1.5625q1.03125 -0.921875 1.453125 -1.78125l1.0625 0l0 13.40625zm4.2038574 -6.59375q0 -2.359375 0.484375 -3.796875q0.484375 -1.453125 1.4375 -2.234375q0.96875 -0.78125 2.421875 -0.78125q1.078125 0 1.890625 0.4375q0.8125 0.421875 1.328125 1.25q0.53125 0.8125 0.828125 1.984375q0.3125 1.15625 0.3125 3.140625q0 2.359375 -0.484375 3.8125q-0.484375 1.4375 -1.453125 2.234375q-0.953125 0.78125 -2.421875 0.78125q-1.921875 0 -3.03125 -1.390625q-1.3125 -1.671875 -1.3125 -5.4375zm1.671875 0q0 3.296875 0.765625 4.390625q0.78125 1.078125 1.90625 1.078125q1.140625 0 1.90625 -1.09375q0.765625 -1.09375 0.765625 -4.375q0 -3.296875 -0.765625 -4.375q-0.765625 -1.078125 -1.921875 -1.078125q-1.125 0 -1.796875 0.953125q-0.859375 1.21875 -0.859375 4.5zm8.703796 0q0 -2.359375 0.484375 -3.796875q0.484375 -1.453125 1.4375 -2.234375q0.96875 -0.78125 2.421875 -0.78125q1.078125 0 1.890625 0.4375q0.8125 0.421875 1.328125 1.25q0.53125 0.8125 0.828125 1.984375q0.3125 1.15625 0.3125 3.140625q0 2.359375 -0.484375 3.8125q-0.484375 1.4375 -1.453125 2.234375q-0.953125 0.78125 -2.421875 0.78125q-1.921875 0 -3.03125 -1.390625q-1.3125 -1.671875 -1.3125 -5.4375zm1.671875 0q0 3.296875 0.765625 4.390625q0.78125 1.078125 1.90625 1.078125q1.140625 0 1.90625 -1.09375q0.765625 -1.09375 0.765625 -4.375q0 -3.296875 -0.765625 -4.375q-0.765625 -1.078125 -1.921875 -1.078125q-1.125 0 -1.796875 0.953125q-0.859375 1.21875 -0.859375 4.5z" fill-rule="nonzero"/><path fill="#000000" fill-opacity="0.0" d="m228.57217 559.4252l92.12598 0l0 42.236267l-92.12598 0z" fill-rule="evenodd"/><path fill="#000000" d="m238.5878 583.25146l1.578125 -0.140625q0.203125 1.109375 0.765625 1.609375q0.5625 0.5 1.453125 0.5q0.75 0 1.3125 -0.34375q0.578125 -0.34375 0.9375 -0.921875q0.375 -0.578125 0.609375 -1.5625q0.25 -0.984375 0.25 -2.0q0 -0.109375 0 -0.328125q-0.5 0.78125 -1.359375 1.265625q-0.84375 0.484375 -1.828125 0.484375q-1.671875 0 -2.8125 -1.203125q-1.140625 -1.203125 -1.140625 -3.171875q0 -2.03125 1.1875 -3.265625q1.203125 -1.234375 3.0 -1.234375q1.3125 0 2.390625 0.703125q1.078125 0.703125 1.640625 2.0q0.5625 1.296875 0.5625 3.75q0 2.5625 -0.5625 4.078125q-0.5625 1.515625 -1.65625 2.3125q-1.09375 0.796875 -2.578125 0.796875q-1.5625 0 -2.5625 -0.875q-0.984375 -0.875 -1.1875 -2.453125zm6.71875 -5.890625q0 -1.40625 -0.75 -2.234375q-0.75 -0.828125 -1.8125 -0.828125q-1.09375 0 -1.90625 0.890625q-0.8125 0.890625 -0.8125 2.3125q0 1.28125 0.765625 2.078125q0.78125 0.796875 1.90625 0.796875q1.140625 0 1.875 -0.796875q0.734375 -0.796875 0.734375 -2.21875zm3.4225922 2.390625q0 -2.359375 0.484375 -3.796875q0.484375 -1.453125 1.4375 -2.234375q0.96875 -0.78125 2.421875 -0.78125q1.078125 0 1.890625 0.4375q0.8125 0.421875 1.3281403 1.25q0.53125 0.8125 0.828125 1.984375q0.3125 1.15625 0.3125 3.140625q0 2.359375 -0.484375 3.8125q-0.484375 1.4375 -1.4531403 2.234375q-0.953125 0.78125 -2.421875 0.78125q-1.921875 0 -3.03125 -1.390625q-1.3125 -1.671875 -1.3125 -5.4375zm1.671875 0q0 3.296875 0.765625 4.390625q0.78125 1.078125 1.90625 1.078125q1.140625 0 1.90625 -1.09375q0.765625 -1.09375 0.765625 -4.375q0 -3.296875 -0.765625 -4.375q-0.765625 -1.078125 -1.921875 -1.078125q-1.125 0 -1.796875 0.953125q-0.859375 1.21875 -0.859375 4.5zm8.703842 0q0 -2.359375 0.484375 -3.796875q0.484375 -1.453125 1.4375 -2.234375q0.96875 -0.78125 2.421875 -0.78125q1.078125 0 1.890625 0.4375q0.8125 0.421875 1.328125 1.25q0.53125 0.8125 0.828125 1.984375q0.3125 1.15625 0.3125 3.140625q0 2.359375 -0.484375 3.8125q-0.484375 1.4375 -1.453125 2.234375q-0.953125 0.78125 -2.421875 0.78125q-1.921875 0 -3.03125 -1.390625q-1.3125 -1.671875 -1.3125 -5.4375zm1.671875 0q0 3.296875 0.765625 4.390625q0.78125 1.078125 1.90625 1.078125q1.140625 0 1.90625 -1.09375q0.765625 -1.09375 0.765625 -4.375q0 -3.296875 -0.765625 -4.375q-0.765625 -1.078125 -1.921875 -1.078125q-1.125 0 -1.796875 0.953125q-0.859375 1.21875 -0.859375 4.5zm8.703857 0q0 -2.359375 0.484375 -3.796875q0.484375 -1.453125 1.4375 -2.234375q0.96875 -0.78125 2.421875 -0.78125q1.078125 0 1.890625 0.4375q0.8125 0.421875 1.328125 1.25q0.53125 0.8125 0.828125 1.984375q0.3125 1.15625 0.3125 3.140625q0 2.359375 -0.484375 3.8125q-0.484375 1.4375 -1.453125 2.234375q-0.953125 0.78125 -2.421875 0.78125q-1.921875 0 -3.03125 -1.390625q-1.3125 -1.671875 -1.3125 -5.4375zm1.671875 0q0 3.296875 0.765625 4.390625q0.78125 1.078125 1.90625 1.078125q1.140625 0 1.90625 -1.09375q0.765625 -1.09375 0.765625 -4.375q0 -3.296875 -0.765625 -4.375q-0.765625 -1.078125 -1.921875 -1.078125q-1.125 0 -1.796875 0.953125q-0.859375 1.21875 -0.859375 4.5zm8.703827 0q0 -2.359375 0.484375 -3.796875q0.484375 -1.453125 1.4375 -2.234375q0.96875 -0.78125 2.421875 -0.78125q1.078125 0 1.890625 0.4375q0.8125 0.421875 1.328125 1.25q0.53125 0.8125 0.828125 1.984375q0.3125 1.15625 0.3125 3.140625q0 2.359375 -0.484375 3.8125q-0.484375 1.4375 -1.453125 2.234375q-0.953125 0.78125 -2.421875 0.78125q-1.921875 0 -3.03125 -1.390625q-1.3125 -1.671875 -1.3125 -5.4375zm1.671875 0q0 3.296875 0.765625 4.390625q0.78125 1.078125 1.90625 1.078125q1.140625 0 1.90625 -1.09375q0.765625 -1.09375 0.765625 -4.375q0 -3.296875 -0.765625 -4.375q-0.765625 -1.078125 -1.921875 -1.078125q-1.125 0 -1.796875 0.953125q-0.859375 1.21875 -0.859375 4.5z" fill-rule="nonzero"/><path fill="#000000" fill-opacity="0.0" d="m546.92255 553.24805l54.80316 0l0 42.236206l-54.80316 0z" fill-rule="evenodd"/><path fill="#000000" d="m561.9538 580.168l0 -3.203125l-5.796875 0l0 -1.5l6.09375 -8.65625l1.34375 0l0 8.65625l1.796875 0l0 1.5l-1.796875 0l0 3.203125l-1.640625 0zm0 -4.703125l0 -6.015625l-4.1875 6.015625l4.1875 0zm5.1257324 -1.890625q0 -2.359375 0.484375 -3.796875q0.484375 -1.453125 1.4375 -2.234375q0.96875 -0.78125 2.421875 -0.78125q1.078125 0 1.890625 0.4375q0.8125 0.421875 1.328125 1.25q0.53125 0.8125 0.828125 1.984375q0.3125 1.15625 0.3125 3.140625q0 2.359375 -0.484375 3.8125q-0.484375 1.4375 -1.453125 2.234375q-0.953125 0.78125 -2.421875 0.78125q-1.921875 0 -3.03125 -1.390625q-1.3125 -1.671875 -1.3125 -5.4375zm1.671875 0q0 3.296875 0.765625 4.390625q0.78125 1.078125 1.90625 1.078125q1.140625 0 1.90625 -1.09375q0.765625 -1.09375 0.765625 -4.375q0 -3.296875 -0.765625 -4.375q-0.765625 -1.078125 -1.921875 -1.078125q-1.125 0 -1.796875 0.953125q-0.859375 1.21875 -0.859375 4.5z" fill-rule="nonzero"/><path fill="#000000" fill-opacity="0.0" d="m172.77985 105.37101l0 0c0 -21.439087 17.379807 -38.8189 38.818893 -38.8189l0 0c10.29541 0 20.169144 4.0898438 27.449097 11.369797c7.2799683 7.279953 11.369797 17.153694 11.369797 27.449104l0 0c0 21.439087 -17.379807 38.8189 -38.818893 38.8189l0 0c-21.439087 0 -38.818893 -17.379814 -38.818893 -38.8189z" fill-rule="evenodd"/><path stroke="#000000" stroke-width="4.0" stroke-linejoin="round" stroke-linecap="butt" d="m172.77985 105.37101l0 0c0 -21.439087 17.379807 -38.8189 38.818893 -38.8189l0 0c10.29541 0 20.169144 4.0898438 27.449097 11.369797c7.2799683 7.279953 11.369797 17.153694 11.369797 27.449104l0 0c0 21.439087 -17.379807 38.8189 -38.818893 38.8189l0 0c-21.439087 0 -38.818893 -17.379814 -38.818893 -38.8189z" fill-rule="evenodd"/><path fill="#000000" d="m214.62218 117.09101l-2.8125 0l0 -17.921875q-1.015625 0.96875 -2.671875 1.9375q-1.640625 0.96875 -2.953125 1.453125l0 -2.71875q2.359375 -1.109375 4.125 -2.6875q1.765625 -1.578125 2.5 -3.0625l1.8125 0l0 23.0z" fill-rule="nonzero"/><path fill="#000000" fill-opacity="0.0" d="m312.02625 105.37101l0 0c0 -21.439087 17.379822 -38.8189 38.81888 -38.8189l0 0c10.295441 0 20.169159 4.0898438 27.449127 11.369797c7.2799377 7.279953 11.3697815 17.153694 11.3697815 27.449104l0 0c0 21.439087 -17.379822 38.8189 -38.81891 38.8189l0 0c-21.439056 0 -38.81888 -17.379814 -38.81888 -38.8189z" fill-rule="evenodd"/><path stroke="#000000" stroke-width="4.0" stroke-linejoin="round" stroke-linecap="butt" d="m312.02625 105.37101l0 0c0 -21.439087 17.379822 -38.8189 38.81888 -38.8189l0 0c10.295441 0 20.169159 4.0898438 27.449127 11.369797c7.2799377 7.279953 11.3697815 17.153694 11.3697815 27.449104l0 0c0 21.439087 -17.379822 38.8189 -38.81891 38.8189l0 0c-21.439056 0 -38.81888 -17.379814 -38.81888 -38.8189z" fill-rule="evenodd"/><path fill="#000000" d="m343.2748 111.09101l2.953125 -0.25q0.328125 2.15625 1.515625 3.25q1.203125 1.078125 2.890625 1.078125q2.03125 0 3.4375 -1.53125q1.40625 -1.53125 1.40625 -4.0625q0 -2.40625 -1.359375 -3.796875q-1.34375 -1.390625 -3.53125 -1.390625q-1.359375 0 -2.453125 0.625q-1.09375 0.609375 -1.71875 1.59375l-2.640625 -0.34375l2.21875 -11.765625l11.390625 0l0 2.6875l-9.140625 0l-1.234375 6.15625q2.0625 -1.4375 4.328125 -1.4375q3.0 0 5.0625 2.078125q2.0625 2.078125 2.0625 5.34375q0 3.109375 -1.8125 5.375q-2.203125 2.78125 -6.015625 2.78125q-3.125 0 -5.109375 -1.75q-1.96875 -1.75 -2.25 -4.640625z" fill-rule="nonzero"/><path fill="#000000" fill-opacity="0.0" d="m172.7792 249.55473l0 0c0 -21.439087 17.379807 -38.818893 38.818893 -38.818893l0 0c10.29541 0 20.169144 4.0898285 27.449112 11.369797c7.279953 7.279953 11.3697815 17.153687 11.3697815 27.449097l0 0c0 21.439102 -17.379807 38.818893 -38.818893 38.818893l0 0c-21.439087 0 -38.818893 -17.379791 -38.818893 -38.818893z" fill-rule="evenodd"/><path stroke="#000000" stroke-width="4.0" stroke-linejoin="round" stroke-linecap="butt" d="m172.7792 249.55473l0 0c0 -21.439087 17.379807 -38.818893 38.818893 -38.818893l0 0c10.29541 0 20.169144 4.0898285 27.449112 11.369797c7.279953 7.279953 11.3697815 17.153687 11.3697815 27.449097l0 0c0 21.439102 -17.379807 38.818893 -38.818893 38.818893l0 0c-21.439087 0 -38.818893 -17.379791 -38.818893 -38.818893z" fill-rule="evenodd"/><path fill="#000000" d="m218.80904 258.57162l0 2.703125l-15.140625 0q-0.03125 -1.015625 0.328125 -1.953125q0.578125 -1.546875 1.84375 -3.046875q1.28125 -1.5000153 3.6875 -3.4687653q3.734375 -3.0625 5.046875 -4.84375q1.3125 -1.796875 1.3125 -3.390625q0 -1.671875 -1.203125 -2.8125q-1.1875 -1.15625 -3.109375 -1.15625q-2.03125 0 -3.25 1.21875q-1.21875 1.21875 -1.234375 3.375l-2.890625 -0.296875q0.296875 -3.234375 2.234375 -4.921875q1.9375 -1.703125 5.203125 -1.703125q3.296875 0 5.21875 1.828125q1.921875 1.828125 1.921875 4.53125q0 1.375 -0.5625 2.703125q-0.5625 1.328125 -1.875 2.796875q-1.296875 1.46875 -4.328125 4.03125q-2.53125 2.1250153 -3.25 2.8906403q-0.71875 0.75 -1.1875 1.515625l11.234375 0z" fill-rule="nonzero"/><path fill="#000000" fill-opacity="0.0" d="m451.2723 105.37101l0 0c0 -21.439087 17.379822 -38.8189 38.81891 -38.8189l0 0c10.29541 0 20.169159 4.0898438 27.449127 11.369797c7.279907 7.279953 11.369751 17.153694 11.369751 27.449104l0 0c0 21.439087 -17.379791 38.8189 -38.81888 38.8189l0 0c-21.439087 0 -38.81891 -17.379814 -38.81891 -38.8189z" fill-rule="evenodd"/><path stroke="#000000" stroke-width="4.0" stroke-linejoin="round" stroke-linecap="butt" d="m451.2723 105.37101l0 0c0 -21.439087 17.379822 -38.8189 38.81891 -38.8189l0 0c10.29541 0 20.169159 4.0898438 27.449127 11.369797c7.279907 7.279953 11.369751 17.153694 11.369751 27.449104l0 0c0 21.439087 -17.379791 38.8189 -38.81888 38.8189l0 0c-21.439087 0 -38.81891 -17.379814 -38.81891 -38.8189z" fill-rule="evenodd"/><path fill="#000000" d="m482.53653 111.044136l2.8125 -0.375q0.484375 2.390625 1.640625 3.453125q1.171875 1.046875 2.84375 1.046875q1.984375 0 3.34375 -1.375q1.375 -1.375 1.375 -3.40625q0 -1.9375 -1.265625 -3.1875q-1.265625 -1.265625 -3.21875 -1.265625q-0.796875 0 -1.984375 0.3125l0.3125 -2.46875q0.28125 0.03125 0.453125 0.03125q1.796875 0 3.234375 -0.9375q1.4375 -0.9375 1.4375 -2.890625q0 -1.546875 -1.046875 -2.5625q-1.046875 -1.015625 -2.703125 -1.015625q-1.640625 0 -2.734375 1.03125q-1.09375 1.03125 -1.40625 3.09375l-2.8125 -0.5q0.515625 -2.828125 2.34375 -4.375q1.828125 -1.5625 4.546875 -1.5625q1.875 0 3.453125 0.8125q1.578125 0.796875 2.40625 2.1875q0.84375 1.390625 0.84375 2.953125q0 1.484375 -0.796875 2.703125q-0.796875 1.21875 -2.359375 1.9375q2.03125 0.46875 3.15625 1.953125q1.125 1.46875 1.125 3.6875q0 3.0 -2.1875 5.09375q-2.1875 2.078125 -5.53125 2.078125q-3.015625 0 -5.015625 -1.796875q-1.984375 -1.796875 -2.265625 -4.65625z" fill-rule="nonzero"/><path fill="#000000" fill-opacity="0.0" d="m451.2723 249.55435l0 0c0 -21.439087 17.379822 -38.818893 38.81891 -38.818893l0 0c10.29541 0 20.169159 4.0898438 27.449127 11.369797c7.279907 7.279953 11.369751 17.153687 11.369751 27.449097l0 0c0 21.439087 -17.379791 38.81891 -38.81888 38.81891l0 0c-21.439087 0 -38.81891 -17.379822 -38.81891 -38.81891z" fill-rule="evenodd"/><path stroke="#000000" stroke-width="4.0" stroke-linejoin="round" stroke-linecap="butt" d="m451.2723 249.55435l0 0c0 -21.439087 17.379822 -38.818893 38.81891 -38.818893l0 0c10.29541 0 20.169159 4.0898438 27.449127 11.369797c7.279907 7.279953 11.369751 17.153687 11.369751 27.449097l0 0c0 21.439087 -17.379791 38.81891 -38.81888 38.81891l0 0c-21.439087 0 -38.81891 -17.379822 -38.81891 -38.81891z" fill-rule="evenodd"/><path fill="#000000" d="m497.11465 243.97748l-2.796875 0.21875q-0.375 -1.65625 -1.0625 -2.40625q-1.140625 -1.203125 -2.8125 -1.203125q-1.34375 0 -2.359375 0.75q-1.328125 0.96875 -2.09375 2.828125q-0.765625 1.859375 -0.796875 5.296875q1.015625 -1.546875 2.484375 -2.296875q1.46875 -0.75 3.078125 -0.75q2.8125 0 4.78125 2.078125q1.984375 2.0625 1.984375 5.34375q0 2.15625 -0.9375 4.015625q-0.921875 1.84375 -2.546875 2.828125q-1.625 0.984375 -3.6875 0.984375q-3.515625 0 -5.734375 -2.578125q-2.21875 -2.59375 -2.21875 -8.53125q0 -6.640625 2.453125 -9.65625q2.140625 -2.625 5.765625 -2.625q2.703125 0 4.421875 1.515625q1.734375 1.515625 2.078125 4.1875zm-11.484375 9.875q0 1.453125 0.609375 2.78125q0.625 1.328125 1.734375 2.03125q1.109375 0.6875 2.328125 0.6875q1.78125 0 3.0625 -1.4375q1.28125 -1.4375 1.28125 -3.90625q0 -2.375 -1.265625 -3.734375q-1.265625 -1.375 -3.1875 -1.375q-1.90625 0 -3.234375 1.375q-1.328125 1.359375 -1.328125 3.578125z" fill-rule="nonzero"/><path fill="#000000" fill-opacity="0.0" d="m312.0259 249.55435l0 0c0 -21.439087 17.379822 -38.818893 38.81891 -38.818893l0 0c10.29541 0 20.169159 4.0898438 27.449097 11.369797c7.2799683 7.279953 11.369812 17.153687 11.369812 27.449097l0 0c0 21.439087 -17.379822 38.81891 -38.81891 38.81891l0 0c-21.439087 0 -38.81891 -17.379822 -38.81891 -38.81891z" fill-rule="evenodd"/><path stroke="#000000" stroke-width="4.0" stroke-linejoin="round" stroke-linecap="butt" d="m312.0259 249.55435l0 0c0 -21.439087 17.379822 -38.818893 38.81891 -38.818893l0 0c10.29541 0 20.169159 4.0898438 27.449097 11.369797c7.2799683 7.279953 11.369812 17.153687 11.369812 27.449097l0 0c0 21.439087 -17.379822 38.81891 -38.81891 38.81891l0 0c-21.439087 0 -38.81891 -17.379822 -38.81891 -38.81891z" fill-rule="evenodd"/><path fill="#000000" d="m352.29013 261.27435l0 -5.484375l-9.9375 0l0 -2.578125l10.453125 -14.84375l2.296875 0l0 14.84375l3.09375 0l0 2.578125l-3.09375 0l0 5.484375l-2.8125 0zm0 -8.0625l0 -10.328125l-7.171875 10.328125l7.171875 0z" fill-rule="nonzero"/><path fill="#000000" fill-opacity="0.0" d="m267.3931 262.7326c3.7261658 -35.472 2.2257385 -138.58704 -3.2913208 -174.41995c-5.5170593 -35.832893 -15.457138 -35.470688 -29.811035 -40.577423c-14.353897 -5.106739 -43.338577 -1.5188103 -56.312332 9.937008c-12.973755 11.455814 -18.21785 24.430447 -21.530182 58.7979c-3.3123474 34.367455 -4.416458 116.213905 1.6561584 147.4068c6.0726166 31.192932 20.839462 33.5394 34.779526 39.75067c13.940079 6.211273 36.442703 4.3328857 48.8609 -2.4829407c12.418198 -6.8158264 21.92212 -2.9400635 25.648285 -38.41208z" fill-rule="evenodd"/><path stroke="#0000ff" stroke-width="4.0" stroke-linejoin="round" stroke-linecap="butt" d="m267.3931 262.7326c3.7261658 -35.472 2.2257385 -138.58704 -3.2913208 -174.41995c-5.5170593 -35.832893 -15.457138 -35.470688 -29.811035 -40.577423c-14.353897 -5.106739 -43.338577 -1.5188103 -56.312332 9.937008c-12.973755 11.455814 -18.21785 24.430447 -21.530182 58.7979c-3.3123474 34.367455 -4.416458 116.213905 1.6561584 147.4068c6.0726166 31.192932 20.839462 33.5394 34.779526 39.75067c13.940079 6.211273 36.442703 4.3328857 48.8609 -2.4829407c12.418198 -6.8158264 21.92212 -2.9400635 25.648285 -38.41208z" fill-rule="evenodd"/><path fill="#000000" fill-opacity="0.0" d="m406.63983 262.7326c3.7261353 -35.472 2.225708 -138.58704 -3.2913513 -174.41995c-5.5170593 -35.832893 -15.457123 -35.470688 -29.811035 -40.577423c-14.353882 -5.106739 -43.338562 -1.5188103 -56.312317 9.937008c-12.973755 11.455814 -18.217865 24.430447 -21.530182 58.7979c-3.3123474 34.367455 -4.416443 116.213905 1.6561584 147.4068c6.072632 31.192932 20.839447 33.5394 34.77954 39.75067c13.940063 6.211273 36.442688 4.3328857 48.86087 -2.4829407c12.418213 -6.8158264 21.92215 -2.9400635 25.648315 -38.41208z" fill-rule="evenodd"/><path stroke="#38761d" stroke-width="4.0" stroke-linejoin="round" stroke-linecap="butt" d="m406.63983 262.7326c3.7261353 -35.472 2.225708 -138.58704 -3.2913513 -174.41995c-5.5170593 -35.832893 -15.457123 -35.470688 -29.811035 -40.577423c-14.353882 -5.106739 -43.338562 -1.5188103 -56.312317 9.937008c-12.973755 11.455814 -18.217865 24.430447 -21.530182 58.7979c-3.3123474 34.367455 -4.416443 116.213905 1.6561584 147.4068c6.072632 31.192932 20.839447 33.5394 34.77954 39.75067c13.940063 6.211273 36.442688 4.3328857 48.86087 -2.4829407c12.418213 -6.8158264 21.92215 -2.9400635 25.648315 -38.41208z" fill-rule="evenodd"/><path fill="#000000" fill-opacity="0.0" d="m530.79736 198.11469c-40.817657 -4.287689 -159.47214 -2.5611267 -200.70505 3.7873535c-41.23291 6.34848 -40.81613 17.786514 -46.692444 34.303543c-5.876343 16.517029 -1.7477112 49.869705 11.434509 64.7986c13.18222 14.928894 28.112122 20.963287 67.65875 24.77478c39.54663 3.8115234 133.72733 5.0820007 169.621 -1.9057312c35.893677 -6.9877625 38.59375 -23.97998 45.74109 -40.020813c7.147339 -16.040833 4.985901 -41.934616 -2.8571167 -56.224228c-7.8429565 -14.289627 -3.3831177 -25.2258 -44.200745 -29.513504z" fill-rule="evenodd"/><path stroke="#9900ff" stroke-width="4.0" stroke-linejoin="round" stroke-linecap="butt" d="m530.79736 198.11469c-40.817657 -4.287689 -159.47214 -2.5611267 -200.70505 3.7873535c-41.23291 6.34848 -40.81613 17.786514 -46.692444 34.303543c-5.876343 16.517029 -1.7477112 49.869705 11.434509 64.7986c13.18222 14.928894 28.112122 20.963287 67.65875 24.77478c39.54663 3.8115234 133.72733 5.0820007 169.621 -1.9057312c35.893677 -6.9877625 38.59375 -23.97998 45.74109 -40.020813c7.147339 -16.040833 4.985901 -41.934616 -2.8571167 -56.224228c-7.8429565 -14.289627 -3.3831177 -25.2258 -44.200745 -29.513504z" fill-rule="evenodd"/><path fill="#000000" fill-opacity="0.0" d="m384.02307 36.542503c-40.817627 -3.7917404 -159.4721 -2.2648926 -200.70502 3.349266c-41.23291 5.6141624 -40.81613 15.729176 -46.692444 30.335701c-5.8763275 14.606522 -1.7476959 44.10134 11.434509 57.30343c13.182205 13.202087 28.112122 18.538483 67.65874 21.909119c39.54663 3.370636 133.72734 4.494171 169.62105 -1.685318c35.893677 -6.179489 38.59375 -21.20623 45.74106 -35.391647c7.147339 -14.185417 4.9858704 -37.084084 -2.8571167 -49.720844c-7.8429565 -12.636757 -3.3831177 -22.307964 -44.200775 -26.099705z" fill-rule="evenodd"/><path stroke="#ff0000" stroke-width="4.0" stroke-linejoin="round" stroke-linecap="butt" d="m384.02307 36.542503c-40.817627 -3.7917404 -159.4721 -2.2648926 -200.70502 3.349266c-41.23291 5.6141624 -40.81613 15.729176 -46.692444 30.335701c-5.8763275 14.606522 -1.7476959 44.10134 11.434509 57.30343c13.182205 13.202087 28.112122 18.538483 67.65874 21.909119c39.54663 3.370636 133.72734 4.494171 169.62105 -1.685318c35.893677 -6.179489 38.59375 -21.20623 45.74106 -35.391647c7.147339 -14.185417 4.9858704 -37.084084 -2.8571167 -49.720844c-7.8429565 -12.636757 -3.3831177 -22.307964 -44.200775 -26.099705z" fill-rule="evenodd"/><path fill="#000000" fill-opacity="0.0" d="m384.02307 201.28072c-40.817627 -3.8975677 -159.4721 -2.3281097 -200.70502 3.4427338c-41.23291 5.7708435 -40.81613 16.168167 -46.692444 31.182327c-5.8763275 15.014175 -1.7476959 45.33217 11.434509 58.902725c13.182205 13.570526 28.112122 19.055847 67.65874 22.520569c39.54663 3.4646912 133.72734 4.6195984 169.62105 -1.7323608c35.893677 -6.351959 38.59375 -21.798065 45.74106 -36.379395c7.147339 -14.581299 4.9858704 -38.11905 -2.8571167 -51.10849c-7.8429565 -12.989426 -3.3831177 -22.930557 -44.200775 -26.82811z" fill-rule="evenodd"/><path stroke="#ff9900" stroke-width="4.0" stroke-linejoin="round" stroke-linecap="butt" d="m384.02307 201.28072c-40.817627 -3.8975677 -159.4721 -2.3281097 -200.70502 3.4427338c-41.23291 5.7708435 -40.81613 16.168167 -46.692444 31.182327c-5.8763275 15.014175 -1.7476959 45.33217 11.434509 58.902725c13.182205 13.570526 28.112122 19.055847 67.65874 22.520569c39.54663 3.4646912 133.72734 4.6195984 169.62105 -1.7323608c35.893677 -6.351959 38.59375 -21.798065 45.74106 -36.379395c7.147339 -14.581299 4.9858704 -38.11905 -2.8571167 -51.10849c-7.8429565 -12.989426 -3.3831177 -22.930557 -44.200775 -26.82811z" fill-rule="evenodd"/><path fill="#000000" fill-opacity="0.0" d="m118.09449 147.09973l40.50393 0l0 42.23622l-40.50393 0z" fill-rule="evenodd"/><path fill="#000000" d="m127.985115 162.41035l0 -1.578125l8.640617 0l0 1.28125q-1.28125 1.359375 -2.53125 3.609375q-1.25 2.25 -1.9375 4.625q-0.484375 1.671875 -0.625 3.671875l-1.6875 0q0.03125 -1.578125 0.625 -3.8125q0.59375 -2.234375 1.6875 -4.296875q1.109375 -2.078125 2.359375 -3.5l-6.5312424 0zm10.266335 5.015625q0 -2.359375 0.484375 -3.796875q0.484375 -1.453125 1.4375 -2.234375q0.96875 -0.78125 2.421875 -0.78125q1.078125 0 1.890625 0.4375q0.8125 0.421875 1.328125 1.25q0.53125 0.8125 0.828125 1.984375q0.3125 1.15625 0.3125 3.140625q0 2.359375 -0.484375 3.8125q-0.484375 1.4375 -1.453125 2.234375q-0.953125 0.78125 -2.421875 0.78125q-1.921875 0 -3.03125 -1.390625q-1.3125 -1.671875 -1.3125 -5.4375zm1.671875 0q0 3.296875 0.765625 4.390625q0.78125 1.078125 1.90625 1.078125q1.140625 0 1.90625 -1.09375q0.765625 -1.09375 0.765625 -4.375q0 -3.296875 -0.765625 -4.375q-0.765625 -1.078125 -1.921875 -1.078125q-1.125 0 -1.796875 0.953125q-0.859375 1.21875 -0.859375 4.5z" fill-rule="nonzero"/><path fill="#000000" fill-opacity="0.0" d="m403.97638 147.09973l40.503937 0l0 42.23622l-40.503937 0z" fill-rule="evenodd"/><path fill="#000000" d="m419.9295 174.01973l-1.640625 0l0 -10.453125q-0.59375 0.5625 -1.5625 1.140625q-0.953125 0.5625 -1.71875 0.84375l0 -1.59375q1.375 -0.640625 2.40625 -1.5625q1.03125 -0.921875 1.453125 -1.78125l1.0625 0l0 13.40625zm4.203827 -6.59375q0 -2.359375 0.484375 -3.796875q0.484375 -1.453125 1.4375 -2.234375q0.96875 -0.78125 2.421875 -0.78125q1.078125 0 1.890625 0.4375q0.8125 0.421875 1.328125 1.25q0.53125 0.8125 0.828125 1.984375q0.3125 1.15625 0.3125 3.140625q0 2.359375 -0.484375 3.8125q-0.484375 1.4375 -1.453125 2.234375q-0.953125 0.78125 -2.421875 0.78125q-1.921875 0 -3.03125 -1.390625q-1.3125 -1.671875 -1.3125 -5.4375zm1.671875 0q0 3.296875 0.765625 4.390625q0.78125 1.078125 1.90625 1.078125q1.140625 0 1.90625 -1.09375q0.765625 -1.09375 0.765625 -4.375q0 -3.296875 -0.765625 -4.375q-0.765625 -1.078125 -1.921875 -1.078125q-1.125 0 -1.796875 0.953125q-0.859375 1.21875 -0.859375 4.5z" fill-rule="nonzero"/><path fill="#000000" fill-opacity="0.0" d="m451.27298 320.1496l77.63779 0l0 42.236237l-77.63779 0z" fill-rule="evenodd"/><path fill="#000000" d="m461.05423 343.5696l1.71875 -0.140625q0.1875 1.25 0.875 1.890625q0.703125 0.625 1.6875 0.625q1.1875 0 2.0 -0.890625q0.828125 -0.890625 0.828125 -2.359375q0 -1.40625 -0.796875 -2.21875q-0.78125 -0.8125 -2.0625 -0.8125q-0.78125 0 -1.421875 0.359375q-0.640625 0.359375 -1.0 0.9375l-1.546875 -0.203125l1.296875 -6.859375l6.640625 0l0 1.5625l-5.328125 0l-0.71875 3.59375q1.203125 -0.84375 2.515625 -0.84375q1.75 0 2.953125 1.21875q1.203125 1.203125 1.203125 3.109375q0 1.8125 -1.046875 3.140625q-1.296875 1.625 -3.515625 1.625q-1.8125 0 -2.96875 -1.015625q-1.15625 -1.03125 -1.3125 -2.71875zm10.375702 -3.09375q0 -2.359375 0.484375 -3.796875q0.484375 -1.453125 1.4375 -2.234375q0.96875 -0.78125 2.421875 -0.78125q1.078125 0 1.890625 0.4375q0.8125 0.421875 1.328125 1.25q0.53125 0.8125 0.828125 1.984375q0.3125 1.15625 0.3125 3.140625q0 2.359375 -0.484375 3.8125q-0.484375 1.4375 -1.453125 2.234375q-0.953125 0.78125 -2.421875 0.78125q-1.921875 0 -3.03125 -1.390625q-1.3125 -1.671875 -1.3125 -5.4375zm1.671875 0q0 3.296875 0.765625 4.390625q0.78125 1.078125 1.90625 1.078125q1.140625 0 1.90625 -1.09375q0.765625 -1.09375 0.765625 -4.375q0 -3.296875 -0.765625 -4.375q-0.765625 -1.078125 -1.921875 -1.078125q-1.125 0 -1.796875 0.953125q-0.859375 1.21875 -0.859375 4.5zm8.703857 0q0 -2.359375 0.484375 -3.796875q0.484375 -1.453125 1.4375 -2.234375q0.96875 -0.78125 2.421875 -0.78125q1.078125 0 1.890625 0.4375q0.8125 0.421875 1.328125 1.25q0.53125 0.8125 0.828125 1.984375q0.3125 1.15625 0.3125 3.140625q0 2.359375 -0.484375 3.8125q-0.484375 1.4375 -1.453125 2.234375q-0.953125 0.78125 -2.421875 0.78125q-1.921875 0 -3.03125 -1.390625q-1.3125 -1.671875 -1.3125 -5.4375zm1.671875 0q0 3.296875 0.765625 4.390625q0.78125 1.078125 1.90625 1.078125q1.140625 0 1.90625 -1.09375q0.765625 -1.09375 0.765625 -4.375q0 -3.296875 -0.765625 -4.375q-0.765625 -1.078125 -1.921875 -1.078125q-1.125 0 -1.796875 0.953125q-0.859375 1.21875 -0.859375 4.5zm8.703827 0q0 -2.359375 0.484375 -3.796875q0.484375 -1.453125 1.4375 -2.234375q0.96875 -0.78125 2.421875 -0.78125q1.078125 0 1.890625 0.4375q0.8125 0.421875 1.328125 1.25q0.53125 0.8125 0.828125 1.984375q0.3125 1.15625 0.3125 3.140625q0 2.359375 -0.484375 3.8125q-0.484375 1.4375 -1.453125 2.234375q-0.953125 0.78125 -2.421875 0.78125q-1.921875 0 -3.03125 -1.390625q-1.3125 -1.671875 -1.3125 -5.4375zm1.671875 0q0 3.296875 0.765625 4.390625q0.78125 1.078125 1.90625 1.078125q1.140625 0 1.90625 -1.09375q0.765625 -1.09375 0.765625 -4.375q0 -3.296875 -0.765625 -4.375q-0.765625 -1.078125 -1.921875 -1.078125q-1.125 0 -1.796875 0.953125q-0.859375 1.21875 -0.859375 4.5z" fill-rule="nonzero"/><path fill="#000000" fill-opacity="0.0" d="m245.50656 313.2979l59.055115 0l0 42.236206l-59.055115 0z" fill-rule="evenodd"/><path fill="#000000" d="m255.28781 336.68665l1.640625 -0.21875q0.28125 1.40625 0.953125 2.015625q0.6875 0.609375 1.65625 0.609375q1.15625 0 1.953125 -0.796875q0.796875 -0.796875 0.796875 -1.984375q0 -1.125 -0.734375 -1.859375q-0.734375 -0.734375 -1.875 -0.734375q-0.46875 0 -1.15625 0.171875l0.1875 -1.4375q0.15625 0.015625 0.265625 0.015625q1.046875 0 1.875 -0.546875q0.84375 -0.546875 0.84375 -1.671875q0 -0.90625 -0.609375 -1.5q-0.609375 -0.59375 -1.578125 -0.59375q-0.953125 0 -1.59375 0.609375q-0.640625 0.59375 -0.8125 1.796875l-1.640625 -0.296875q0.296875 -1.640625 1.359375 -2.546875q1.0625 -0.90625 2.65625 -0.90625q1.09375 0 2.0 0.46875q0.921875 0.46875 1.40625 1.28125q0.5 0.8125 0.5 1.71875q0 0.859375 -0.46875 1.578125q-0.46875 0.703125 -1.375 1.125q1.1875 0.28125 1.84375 1.140625q0.65625 0.859375 0.65625 2.15625q0 1.734375 -1.28125 2.953125q-1.265625 1.21875 -3.21875 1.21875q-1.765625 0 -2.921875 -1.046875q-1.15625 -1.046875 -1.328125 -2.71875zm10.375732 -3.0625q0 -2.359375 0.484375 -3.796875q0.484375 -1.453125 1.4375 -2.234375q0.96875 -0.78125 2.421875 -0.78125q1.078125 0 1.890625 0.4375q0.8125 0.421875 1.328125 1.25q0.53125 0.8125 0.828125 1.984375q0.3125 1.15625 0.3125 3.140625q0 2.359375 -0.484375 3.8125q-0.484375 1.4375 -1.453125 2.234375q-0.953125 0.78125 -2.421875 0.78125q-1.921875 0 -3.03125 -1.390625q-1.3125 -1.671875 -1.3125 -5.4375zm1.671875 0q0 3.296875 0.765625 4.390625q0.78125 1.078125 1.90625 1.078125q1.140625 0 1.90625 -1.09375q0.765625 -1.09375 0.765625 -4.375q0 -3.296875 -0.765625 -4.375q-0.765625 -1.078125 -1.921875 -1.078125q-1.125 0 -1.796875 0.953125q-0.859375 1.21875 -0.859375 4.5z" fill-rule="nonzero"/><path fill="#000000" fill-opacity="0.0" d="m261.85303 -0.001312336l59.055115 0l0 42.23622l-59.055115 0z" fill-rule="evenodd"/><path fill="#000000" d="m280.24365 25.34056l0 1.578125l-8.828125 0q-0.015625 -0.59375 0.1875 -1.140625q0.34375 -0.90625 1.078125 -1.78125q0.75 -0.875 2.15625 -2.015625q2.171875 -1.78125 2.9375 -2.828125q0.765625 -1.046875 0.765625 -1.96875q0 -0.984375 -0.703125 -1.640625q-0.6875 -0.671875 -1.8125 -0.671875q-1.1875 0 -1.90625 0.71875q-0.703125 0.703125 -0.703125 1.953125l-1.6875 -0.171875q0.171875 -1.890625 1.296875 -2.875q1.140625 -0.984375 3.03125 -0.984375q1.921875 0 3.046875 1.0625q1.125 1.0625 1.125 2.640625q0 0.796875 -0.328125 1.578125q-0.328125 0.78125 -1.09375 1.640625q-0.75 0.84375 -2.53125 2.34375q-1.46875 1.234375 -1.890625 1.6875q-0.421875 0.4375 -0.6875 0.875l6.546875 0zm1.7663269 -5.015625q0 -2.359375 0.484375 -3.796875q0.484375 -1.453125 1.4375 -2.234375q0.96875 -0.78125 2.421875 -0.78125q1.078125 0 1.890625 0.4375q0.8125 0.421875 1.328125 1.25q0.53125 0.8125 0.828125 1.984375q0.3125 1.15625 0.3125 3.140625q0 2.359375 -0.484375 3.8125q-0.484375 1.4375 -1.453125 2.234375q-0.953125 0.78125 -2.421875 0.78125q-1.921875 0 -3.03125 -1.390625q-1.3125 -1.671875 -1.3125 -5.4375zm1.671875 0q0 3.296875 0.765625 4.390625q0.78125 1.078125 1.90625 1.078125q1.140625 0 1.90625 -1.09375q0.765625 -1.09375 0.765625 -4.375q0 -3.296875 -0.765625 -4.375q-0.765625 -1.078125 -1.921875 -1.078125q-1.125 0 -1.796875 0.953125q-0.859375 1.21875 -0.859375 4.5z" fill-rule="nonzero"/></g></svg>